<svg width="631" height="512" viewBox="0 0 631 512" fill="none" xmlns="http://www.w3.org/2000/svg">
<path d="M248.16 283.954C250.454 243.044 270.487 207.001 300.71 181.45C330.35 156.355 370.243 141.016 413.772 141.016C457.257 141.016 497.151 156.355 526.812 181.45C557.014 207.001 577.047 243.043 579.362 283.911C581.655 325.947 564.759 364.997 535.12 393.944C504.896 423.388 461.908 441.864 413.772 441.864C365.635 441.864 322.561 423.388 292.359 393.944C262.699 364.997 245.845 325.947 248.16 283.954Z" fill="white"/>
<path d="M328.802 287.626C329.978 266.635 340.258 248.141 355.765 235.031C370.973 222.154 391.443 214.284 413.778 214.284C436.09 214.284 456.56 222.154 471.779 235.031C487.276 248.141 497.555 266.634 498.743 287.604C499.92 309.173 491.25 329.209 476.042 344.062C460.534 359.17 438.477 368.651 413.778 368.651C389.079 368.651 366.977 359.17 351.481 344.062C336.261 329.209 327.614 309.173 328.802 287.626Z" fill="#265787"/>
<path d="M193.484 330.042C193.628 338.257 196.248 354.22 200.178 366.686C208.437 393.072 222.446 417.483 241.939 438.996C261.942 461.109 286.575 478.87 315.026 491.48C344.932 504.724 377.335 511.473 410.992 511.418C444.594 511.373 476.997 504.49 506.903 491.147C535.354 478.415 559.964 460.576 579.935 438.452C599.416 416.85 613.404 392.395 621.685 366.009C625.847 352.677 628.478 339.145 629.533 325.569C630.565 312.192 630.132 298.794 628.234 285.406C624.526 259.319 615.501 234.842 601.603 212.53C588.893 192.026 572.508 174.077 553.026 158.969L553.071 158.935L356.465 7.97595C356.288 7.84274 356.143 7.69865 355.955 7.57654C343.056 -2.32533 321.365 -2.29197 307.178 7.6321C292.836 17.6672 291.193 34.2626 303.959 44.7306L303.903 44.7862L385.904 111.468L135.971 111.735H135.638C114.979 111.757 95.1201 125.311 91.1904 142.439C87.1498 159.89 101.181 174.365 122.661 174.443L122.628 174.521L249.31 174.277L23.2537 347.792C22.9651 348.003 22.6542 348.225 22.3878 348.436C1.06323 364.765 -5.83018 391.918 7.60174 409.102C21.2335 426.574 50.2175 426.608 71.7641 409.202L195.138 308.229C195.138 308.229 193.34 321.861 193.484 330.042ZM510.51 375.688C485.09 401.586 449.501 416.273 410.992 416.351C372.428 416.417 336.839 401.864 311.418 376.011C298.997 363.411 289.872 348.914 284.244 333.472C278.727 318.298 276.584 302.19 278.005 285.939C279.348 270.054 284.077 254.901 291.626 241.192C299.041 227.715 309.254 215.538 321.864 205.237C346.574 185.1 378.034 174.199 410.937 174.154C443.873 174.11 475.31 184.911 500.042 204.981C512.631 215.238 522.832 227.371 530.248 240.825C537.83 254.524 542.525 269.621 543.924 285.55C545.322 301.78 543.18 317.865 537.663 333.051C532.024 348.536 522.932 363.034 510.51 375.688Z" fill="#EA7600"/>
</svg>
