<svg width="2500" height="2500" viewBox="0 0 2500 2500" fill="none" xmlns="http://www.w3.org/2000/svg">
<path d="M833.833 2500C1063.83 2500 1250.5 2313.33 1250.5 2083.33V1666.67H833.833C603.833 1666.67 417.167 1853.33 417.167 2083.33C417.167 2313.33 603.833 2500 833.833 2500Z" fill="#0ACF83"/>
<path d="M417.167 1250C417.167 1020 603.833 833.333 833.833 833.333H1250.5V1666.67H833.833C603.833 1666.67 417.167 1480 417.167 1250Z" fill="#A259FF"/>
<path d="M417.167 416.667C417.167 186.667 603.833 4.57764e-05 833.833 4.57764e-05H1250.5V833.333H833.833C603.833 833.333 417.167 646.667 417.167 416.667Z" fill="#F24E1E"/>
<path d="M1250.5 4.57764e-05H1667.17C1897.17 4.57764e-05 2083.83 186.667 2083.83 416.667C2083.83 646.667 1897.17 833.333 1667.17 833.333H1250.5V4.57764e-05Z" fill="#FF7262"/>
<path d="M2083.83 1250C2083.83 1480 1897.17 1666.67 1667.17 1666.67C1437.17 1666.67 1250.5 1480 1250.5 1250C1250.5 1020 1437.17 833.333 1667.17 833.333C1897.17 833.333 2083.83 1020 2083.83 1250Z" fill="#1ABCFE"/>
</svg>
