<?xml version="1.0" encoding="UTF-8"?>
<svg id="Layer_1" data-name="Layer 1" xmlns="http://www.w3.org/2000/svg" version="1.1" viewBox="0 0 82.3 86.5">
  <defs>
    <style>
      .cls-1 {
        fill: #00ca72;
      }

      .cls-1, .cls-2, .cls-3 {
        stroke-width: 0px;
      }

      .cls-2 {
        fill: #fc0;
      }

      .cls-3 {
        fill: #fb275d;
      }
    </style>
  </defs>
  <path class="cls-3" d="M10.2,67.2c-3.7,0-7.1-1.9-8.9-5.1-1.8-3.1-1.7-6.9.3-9.9l18.4-28.1c1.9-3.1,5.4-4.8,9.1-4.8s7.1,2.1,8.8,5.3c1.7,3.2,1.5,7-.5,9.9l-18.5,28.1c-1.9,2.8-5.2,4.6-8.7,4.6Z"/>
  <path class="cls-2" d="M41.5,67.2c-3.7,0-7.1-1.9-8.9-5-1.8-3.1-1.7-6.9.3-9.9l18.4-28.1c1.9-3.1,5.3-4.9,9.1-4.9s7.1,2.1,8.8,5.3c1.7,3.2,1.5,7-.7,10l-18.4,28c-1.8,2.8-5.1,4.6-8.6,4.6h0Z"/>
  <path class="cls-1" d="M72.1,67.2c5.6,0,10.2-4.6,10.2-10.2s-4.6-10.2-10.2-10.2-10.2,4.6-10.2,10.2,4.5,10.2,10.2,10.2Z"/>
</svg>